<?xml version="1.0" encoding="iso-8859-1"?>
<!-- Generator: Adobe Illustrator 19.0.0, SVG Export Plug-In . SVG Version: 6.00 Build 0)  -->
<svg version="1.1" id="Layer_1" xmlns="http://www.w3.org/2000/svg" xmlns:xlink="http://www.w3.org/1999/xlink" x="0px" y="0px"
	 viewBox="0 0 512 512" style="enable-background:new 0 0 512 512;" xml:space="preserve">
<path style="fill:#F8E99B;" d="M407.273,346.182c0-83.546-67.727-151.273-151.273-151.273s-151.273,67.727-151.273,151.273H34.909
	c0-122.105,98.986-221.089,221.091-221.089s221.09,98.984,221.091,221.089H407.273z"/>
<path style="fill:#99A1EA;" d="M256,264.727c-44.986,0-81.455,36.468-81.455,81.455h-69.818
	c0-83.546,67.727-151.273,151.273-151.273s151.273,67.727,151.273,151.273h-69.818C337.455,301.196,300.986,264.727,256,264.727z"/>
<path style="fill:#E17858;" d="M17.455,346.182h34.909c0-112.285,91.351-203.636,203.636-203.636s203.636,91.351,203.636,203.636
	h34.909c0-131.534-107.01-238.545-238.545-238.545S17.455,214.648,17.455,346.182z"/>
<path style="fill:#A4DE7B;" d="M136.4,286.082c22.9-45.471,68.728-73.719,119.6-73.719c50.868,0,96.696,28.245,119.596,73.715
	l31.178-15.702c-13.847-27.493-34.96-50.701-61.058-67.115c-26.843-16.883-57.867-25.807-89.716-25.807
	c-31.851,0-62.876,8.924-89.72,25.808c-26.098,16.415-47.211,39.624-61.058,67.119L136.4,286.082z"/>
<path style="fill:#B681D5;" d="M157.093,346.179h34.909c0-35.288,28.709-63.998,63.998-63.998s63.998,28.709,63.998,63.998h34.909
	c0-54.537-44.369-98.907-98.907-98.907S157.093,291.642,157.093,346.179z"/>
<path style="fill:#E8F4FC;" d="M34.909,334.545c0-38.559,31.259-69.818,69.818-69.818s69.818,31.259,69.818,69.818
	c19.279,0,34.909,15.63,34.909,34.909s-15.63,34.909-34.909,34.909H34.909C15.63,404.364,0,388.734,0,369.455
	S15.63,334.545,34.909,334.545z"/>
<path style="fill:#D1E5F5;" d="M174.545,334.545c19.279,0,34.909,15.63,34.909,34.909s-15.63,34.909-34.909,34.909h-69.818V264.727
	C143.287,264.727,174.545,295.986,174.545,334.545z"/>
<path style="fill:#F5DC60;" d="M256,194.909v-69.818c122.105,0,221.09,98.985,221.091,221.091h-69.818
	C407.273,262.635,339.546,194.909,256,194.909z"/>
<path style="fill:#7E86E3;" d="M407.273,346.182h-69.818c0-44.987-36.468-81.455-81.455-81.455v-69.818
	C339.546,194.909,407.273,262.635,407.273,346.182z"/>
<path style="fill:#DD512A;" d="M494.545,346.182h-34.909c0-112.285-91.351-203.636-203.636-203.636v-34.909
	C387.535,107.636,494.545,214.648,494.545,346.182z"/>
<path style="fill:#92DA62;" d="M406.775,270.377l-31.178,15.702c-22.9-45.47-68.728-73.715-119.596-73.715v-34.909
	c31.85,0,62.874,8.924,89.716,25.807C371.813,219.675,392.927,242.882,406.775,270.377z"/>
<path style="fill:#A25DCC;" d="M354.907,346.179h-34.909c0-35.288-28.709-63.998-63.998-63.998v-34.909
	C310.537,247.273,354.907,291.642,354.907,346.179z"/>
<path style="fill:#E8F4FC;" d="M337.455,334.545c0-38.559,31.259-69.818,69.818-69.818s69.818,31.259,69.818,69.818
	c19.279,0,34.909,15.63,34.909,34.909s-15.63,34.909-34.909,34.909H337.455c-19.279,0-34.909-15.63-34.909-34.909
	S318.175,334.545,337.455,334.545z"/>
<path style="fill:#D1E5F5;" d="M477.091,334.545c19.279,0,34.909,15.63,34.909,34.909s-15.63,34.909-34.909,34.909h-69.818V264.727
	C445.832,264.727,477.091,295.986,477.091,334.545z"/>
<g>
</g>
<g>
</g>
<g>
</g>
<g>
</g>
<g>
</g>
<g>
</g>
<g>
</g>
<g>
</g>
<g>
</g>
<g>
</g>
<g>
</g>
<g>
</g>
<g>
</g>
<g>
</g>
<g>
</g>
</svg>
